<!-- Stampz library icon · Lucide (ISC) -->
<svg xmlns="http://www.w3.org/2000/svg" viewBox="0 0 128 128" width="128" height="128">
  <rect width="128" height="128" rx="28" fill="#0C4A6E"/>
  <g transform="translate(64 64) scale(3.15) translate(-12 -12)" fill="none" stroke="#F8FAFC" stroke-width="2" stroke-linecap="round" stroke-linejoin="round">
    <rect x="8" y="8" width="8" height="8" rx="2" />
  <path d="M4 10a2 2 0 0 1-2-2V4a2 2 0 0 1 2-2h4a2 2 0 0 1 2 2" />
  <path d="M14 20a2 2 0 0 0 2 2h4a2 2 0 0 0 2-2v-4a2 2 0 0 0-2-2" />
  </g>
</svg>
